# xmcd
#
# Track frame offsets:
#	150
#	16339
#	32698
#	47885
#	65215
#	86555
#	104451
#	125097
#	140524
#	153912
#	169822
#	188604
#	207908
#	227645
#	247222
#	268990
#	293412
#	312524
#	334202
#
# Disc length: 4727 seconds
#
# Revision: 1
# Processed by: cddbd v1.5.2PL0 Copyright (c) Steve Scherf et al.
# Submitted via: audiograbber 1.83.01
#
DISCID=1f127513
DTITLE=Алла Пугачева - The Best Of [CD2)
DYEAR=1900
DGENRE=
TTITLE0=Только не назад
TTITLE1=Будь или не будь
TTITLE2=Речной трамвайчик
TTITLE3=Это любовь
TTITLE4=Настоящий полковник
TTITLE5=Бессонница
TTITLE6=Мэри
TTITLE7=Не делайте мне больно, господа
TTITLE8=Мал-помалу
TTITLE9=В воду войду
TTITLE10=А ты не знал
TTITLE11=Позови меня с собой
TTITLE12=В Петербурге гроза
TTITLE13=Доченька
TTITLE14=Непогода
TTITLE15=Осторожно, листопад!
TTITLE16=Мадам Брошкина
TTITLE17=Свеча горела на столе
TTITLE18=Девочка секонд-хэнд
EXTD=
EXTT0=
EXTT1=
EXTT2=
EXTT3=
EXTT4=
EXTT5=
EXTT6=
EXTT7=
EXTT8=
EXTT9=
EXTT10=
EXTT11=
EXTT12=
EXTT13=
EXTT14=
EXTT15=
EXTT16=
EXTT17=
EXTT18=
PLAYORDER=
